<?xml version="1.0" encoding="UTF-8" standalone="no"?>
<svg
   xmlns:dc="http://purl.org/dc/elements/1.1/"
   xmlns:cc="http://creativecommons.org/ns#"
   xmlns:rdf="http://www.w3.org/1999/02/22-rdf-syntax-ns#"
   xmlns:svg="http://www.w3.org/2000/svg"
   xmlns="http://www.w3.org/2000/svg"
   xmlns:sodipodi="http://sodipodi.sourceforge.net/DTD/sodipodi-0.dtd"
   xmlns:inkscape="http://www.inkscape.org/namespaces/inkscape"
   width="1024"
   height="1024"
   viewBox="0 0 270.93333 270.93334"
   version="1.1"
   id="svg8"
   inkscape:export-filename="/home/patrick/Projects/GameTxt/gametxt-desktop/build/source/1024x1024.png"
   inkscape:export-xdpi="96"
   inkscape:export-ydpi="96"
   inkscape:version="1.0.2 (e86c870879, 2021-01-15)"
   sodipodi:docname="icon.svg">
  <defs
     id="defs2" />
  <sodipodi:namedview
     id="base"
     pagecolor="#ffffff"
     bordercolor="#666666"
     borderopacity="1.0"
     inkscape:pageopacity="0.0"
     inkscape:pageshadow="2"
     inkscape:zoom="0.7"
     inkscape:cx="522.08219"
     inkscape:cy="499.93222"
     inkscape:document-units="mm"
     inkscape:current-layer="layer1"
     inkscape:document-rotation="0"
     showgrid="false"
     units="px"
     inkscape:window-width="1514"
     inkscape:window-height="1043"
     inkscape:window-x="1970"
     inkscape:window-y="0"
     inkscape:window-maximized="0" />
  <metadata
     id="metadata5">
    <rdf:RDF>
      <cc:Work
         rdf:about="">
        <dc:format>image/svg+xml</dc:format>
        <dc:type
           rdf:resource="http://purl.org/dc/dcmitype/StillImage" />
        <dc:title></dc:title>
      </cc:Work>
    </rdf:RDF>
  </metadata>
  <g
     inkscape:label="Layer 1"
     inkscape:groupmode="layer"
     id="layer1">
    <rect
       style="fill:#9bbbdb;fill-opacity:1;stroke:#b4cfe9;stroke-width:1.21"
       id="rect914"
       width="246.83627"
       height="246.83627"
       x="13.278885"
       y="12.066701"
       ry="22.817591" />
    <path
       class="st0"
       d="m 111.63878,51.819508 c 5.50984,-2.273413 11.13024,-4.452129 17.06635,-6.094058 6.97813,-1.941829 7.60961,-1.878698 14.60355,-0.205264 10.60926,2.525994 20.06599,6.22032 28.25976,11.161799 16.11915,9.725193 23.72876,20.097623 28.2124,37.969152 11.22498,-4.562579 21.78686,-3.425872 28.14926,5.146807 9.31472,12.551086 6.10981,30.296336 -7.94114,38.348046 -5.54145,3.17329 -12.2038,3.39431 -20.87118,0.15812 -1.10513,4.1363 -2.49442,8.38317 -4.21529,12.72479 -8.88839,22.44992 -11.27231,22.24471 -30.94365,33.80123 l 15.23502,40.132 h -21.3764 c -2.11553,-13.27733 -10.98816,-23.23929 -21.59742,-23.23929 -10.60925,0 -19.48189,9.96196 -21.59742,23.23929 H 94.114542 L 107.86552,184.46698 C 90.183447,174.59971 78.295409,157.39129 73.11704,138.383 64.560179,141.55635 57.960958,141.30371 52.466877,138.1461 38.415935,130.09447 35.21108,112.3492 44.525746,99.798123 50.982834,91.099124 61.749978,90.072925 73.148605,94.856579 78.469048,76.464015 91.004381,60.344924 111.63878,51.819627 Z m 89.54716,49.573042 c 1.62611,9.7725 1.53142,20.12912 -0.72624,31.18048 0.11039,-0.47379 0.22078,-0.93151 0.31565,-1.40511 5.68353,1.94183 10.08829,1.73663 13.78261,-0.33175 9.70938,-5.41514 11.9196,-17.33481 5.47827,-25.76535 -4.27844,-5.604644 -11.31969,-6.472953 -18.85041,-3.67851 z M 71.490925,131.21524 c -1.784003,-9.85146 -1.799756,-20.00287 0.06325,-29.71219 -7.641171,-2.920696 -14.808745,-2.115578 -19.150307,3.56795 -6.425583,8.4306 -4.215301,20.3502 5.478267,25.76534 3.646948,2.03664 8.004322,2.27341 13.60891,0.3789 z m 44.742005,23.34986 c -1.784,0.30014 -3.45744,-0.89988 -3.7574,-2.68389 -0.30014,-1.78399 0.89988,-3.45748 2.68389,-3.75744 7.3412,-1.23141 14.66666,-1.78401 21.9605,-1.73663 7.27808,0.0478 14.49304,0.67886 21.6448,1.84713 1.784,0.28403 2.98384,1.97345 2.69969,3.74171 -0.28402,1.78394 -1.97346,2.98384 -3.7417,2.69962 -6.85181,-1.12089 -13.71942,-1.73662 -20.61854,-1.78399 -6.89919,-0.0299 -13.84574,0.48928 -20.87124,1.67349 z m 46.82603,-51.18334 c 3.61533,0 6.53603,2.9207 6.53603,6.53609 0,3.61532 -2.9207,6.53603 -6.53603,6.53603 -3.61538,0 -6.5361,-2.92071 -6.5361,-6.53603 0,-3.61539 2.93653,-6.53609 6.5361,-6.53609 z m -32.08042,16.48223 c 1.35773,0 2.47868,1.10515 2.47868,2.47868 0,1.35772 -1.10514,2.47861 -2.47868,2.47861 -1.37353,0 -2.47861,-1.10513 -2.47861,-2.47861 0.0179,-1.37353 1.12089,-2.47868 2.47861,-2.47868 z m 12.12488,0 c 1.35771,0 2.47866,1.10515 2.47866,2.47868 0,1.35772 -1.10513,2.47861 -2.47866,2.47861 -1.37355,0 -2.47863,-1.10513 -2.47863,-2.47861 0.0179,-1.37353 1.1209,-2.47868 2.47863,-2.47868 z m -32.66454,-16.48223 c 3.61539,0 6.5361,2.9207 6.5361,6.53609 0,3.61532 -2.92071,6.53603 -6.5361,6.53603 -3.61532,0 -6.53602,-2.92071 -6.53602,-6.53603 0,-3.61539 2.9207,-6.53609 6.53602,-6.53609 z m -3.45743,-27.849307 c 12.81948,-1.310404 18.17149,4.088981 27.86506,4.783654 3.78902,-0.205263 7.54647,-0.09488 10.92502,-1.215649 2.9049,-0.963068 5.84143,-1.894511 8.88839,-2.652314 9.94621,-2.478676 16.81377,-1.326159 25.76535,4.262618 1.43667,0.899877 2.76282,1.878758 3.97847,2.968086 4.78366,4.262619 7.84643,10.072471 8.65162,17.934712 0.89987,14.58773 -4.94155,24.54969 -17.16111,30.18585 9.20416,25.3075 2.88914,42.26339 -26.66522,46.73128 -24.06028,2.87332 -58.272026,-2.09977 -55.351318,-33.42233 0.442153,-4.76785 1.815568,-9.36204 4.02585,-13.7668 C 69.517471,117.52745 79.132096,78.374219 106.98145,75.532453 Z"
       id="path900"
       style="stroke-width:1.57875" />
  </g>
  <style
     type="text/css"
     id="style898">.st0{fill-rule:evenodd;clip-rule:evenodd;}</style>
</svg>
